<?xml version="1.0" encoding="UTF-8" standalone="no"?>
<svg
   xmlns:dc="http://purl.org/dc/elements/1.1/"
   xmlns:cc="http://creativecommons.org/ns#"
   xmlns:rdf="http://www.w3.org/1999/02/22-rdf-syntax-ns#"
   xmlns:svg="http://www.w3.org/2000/svg"
   xmlns="http://www.w3.org/2000/svg"
   xmlns:sodipodi="http://sodipodi.sourceforge.net/DTD/sodipodi-0.dtd"
   xmlns:inkscape="http://www.inkscape.org/namespaces/inkscape"
   viewBox="0 0 1590 420"
   version="1.1"
   id="svg144"
   sodipodi:docname="banner.svg"
   width="1590"
   height="420"
   inkscape:version="0.92.5 (2060ec1f9f, 2020-04-08)">
  <metadata
     id="metadata150">
    <rdf:RDF>
      <cc:Work
         rdf:about="">
        <dc:format>image/svg+xml</dc:format>
        <dc:type
           rdf:resource="http://purl.org/dc/dcmitype/StillImage" />
        <dc:title></dc:title>
      </cc:Work>
    </rdf:RDF>
  </metadata>
  <defs
     id="defs148" />
  <sodipodi:namedview
     pagecolor="#ffffff"
     bordercolor="#666666"
     borderopacity="1"
     objecttolerance="10"
     gridtolerance="10"
     guidetolerance="10"
     inkscape:pageopacity="0"
     inkscape:pageshadow="2"
     inkscape:window-width="1360"
     inkscape:window-height="731"
     id="namedview146"
     showgrid="false"
     inkscape:zoom="0.33886719"
     inkscape:cx="871.38736"
     inkscape:cy="122.5"
     inkscape:window-x="0"
     inkscape:window-y="0"
     inkscape:window-maximized="1"
     inkscape:current-layer="svg144" />
  <g
     id="g223"
     transform="matrix(1.5619596,0,0,1.7469152,2.9510087,-310.75339)">
    <path
       style="fill:#e8f0fe"
       inkscape:connector-curvature="0"
       id="path2"
       d="M 1022.97,378.21 H 32.2 L 55.2,175 h 924.14 z" />
    <circle
       style="fill:#ffffff"
       id="circle4"
       r="25.41"
       cy="296.94"
       cx="184.63" />
    <circle
       style="fill:#ffffff"
       id="circle6"
       r="57.119999"
       cy="281.60999"
       cx="252.39999" />
    <circle
       style="fill:#ffffff"
       id="circle8"
       r="26.24"
       cy="283"
       cx="321.22" />
    <circle
       style="fill:#ffffff"
       id="circle10"
       r="19.200001"
       cy="283"
       cx="357.17999" />
    <circle
       style="fill:#ffffff"
       id="circle12"
       r="25.379999"
       cy="272.79999"
       cx="395.48001" />
    <circle
       style="fill:#ffffff"
       id="circle14"
       r="12.03"
       cy="266.89999"
       cx="423.12" />
    <circle
       style="fill:#ffffff"
       id="circle16"
       r="16.24"
       cy="277.14001"
       cx="442.44" />
    <circle
       style="fill:#ffffff"
       id="circle18"
       r="12.12"
       cy="283.64999"
       cx="462.76001" />
    <circle
       style="fill:#ffffff"
       id="circle20"
       r="22.77"
       cy="284.66"
       cx="493.29001" />
    <circle
       style="fill:#ffffff"
       id="circle22"
       r="25.459999"
       cy="261.89001"
       cx="561.5" />
    <circle
       style="fill:#ffffff"
       id="circle24"
       r="29"
       cy="236.42999"
       cx="590.5" />
    <circle
       style="fill:#ffffff"
       id="circle26"
       r="9.71"
       cy="231.32001"
       cx="621.41998" />
    <circle
       style="fill:#ffffff"
       id="circle28"
       r="13.43"
       cy="228.89999"
       cx="640.83002" />
    <circle
       style="fill:#ffffff"
       id="circle30"
       r="16.59"
       cy="238.82001"
       cx="681.03003" />
    <circle
       style="fill:#ffffff"
       id="circle32"
       r="16.59"
       cy="244.23001"
       cx="710.97998" />
    <circle
       style="fill:#ffffff"
       id="circle34"
       r="30.02"
       cy="246.45999"
       cx="749.23999" />
    <circle
       style="fill:#ffffff"
       id="circle36"
       r="9.6300001"
       cy="263.95001"
       cx="775.09998" />
    <circle
       style="fill:#ffffff"
       id="circle38"
       r="11.76"
       cy="275.06"
       cx="788.88" />
    <path
       style="fill:none;stroke:#e8f0fe;stroke-linecap:round;stroke-linejoin:round"
       inkscape:connector-curvature="0"
       id="path40"
       d="m 183.26,270.88 a 28.9,28.9 0 0 1 22.35,10.55 m 115.52,-25.34 a 26.89,26.89 0 0 1 25,17.2 m -42.3,-17.77 a 57.38,57.38 0 0 1 4.26,11.38 m 106.09,-12.04 a 27.53,27.53 0 0 1 4.3,6.1 M 369.69,271 a 25.38,25.38 0 0 1 1.31,-7 m 63.09,-3.2 a 13.06,13.06 0 0 1 1.52,6.13 m 22.3,3.61 a 17.57,17.57 0 0 1 1.09,4.68 m 12.3,1.78 a 26.15,26.15 0 0 1 3,-5.93 m 86.21,-35.16 a 31.47,31.47 0 0 1 10.34,1.63 m 42.84,-12.88 a 10.5,10.5 0 0 1 7.77,-3.66 m 5.54,7.86 a 13.93,13.93 0 0 1 5.57,-11.35 m 60.06,8.69 a 17.09,17.09 0 0 1 5.46,12.55 m 20.53,7.71 a 31.28,31.28 0 0 1 8.2,-20.77 m 52.93,20.77 a 30.53,30.53 0 0 1 -2.49,12.11 m 7.95,5.17 a 11.15,11.15 0 0 1 -1.11,5" />
    <path
       style="fill:#aecbfa"
       inkscape:connector-curvature="0"
       id="path42"
       d="m 240.78,272.8 71.93,19.68 7.83,-7.82 -3.35,-11.86 28.32,12.53 -57.04,19.82 48.84,32.5 h 24.59 l -3.13,-12.37 -12.57,-6.41 -5.31,-7.9 40.24,17.14 -2.08,-7.9 -4.72,-1.04 -6.31,-8.05 37.26,20.42 24.3,6.11 -103.91,31.67 -12.53,-32.48 -55.74,-14.49 -13.3,3.5 23.27,-36.82 -8.44,4.35 -4.34,-10.38 h -5.12 z m 406.72,-50.57 88.88,33.8 137.58,34.95 -12.58,21.8 -54,-17.01 -82.88,-9.99 6.58,-23.89 -59.41,-9.37 4.7,-13.7 -16.9,-1.43 -11.97,-15.16" />
    <path
       style="fill:#e8f0fe"
       inkscape:connector-curvature="0"
       id="path44"
       d="m 185.81,302.21 54.97,-29.41 8.69,10.2 h 5.12 l 4.34,10.38 8.44,-4.35 -23.27,36.82 13.3,-3.5 55.74,14.49 12.53,32.48 -81.82,19.43 z M 317.19,272.8 293,287.09 l 19.71,5.39 7.83,-7.82 z m -28.72,32.35 57.04,-19.82 64.03,-22.13 34.32,25.11 -14.28,3.71 74.89,21.72 -106.66,13.71 -29.79,-16.33 6.31,8.05 4.72,1.04 2.08,7.9 -40.24,-17.14 5.31,7.9 12.57,6.41 3.13,12.37 h -24.59 z" />
    <path
       style="fill:#aecbfa"
       inkscape:connector-curvature="0"
       id="path46"
       d="m 409.54,263.2 34.32,25.11 -14.28,3.71 85.06,25.75 -43.43,-22 13.75,-5.74 -53.23,-18.5 z" />
    <path
       style="fill:#e8f0fe"
       inkscape:connector-curvature="0"
       id="path48"
       d="m 471.21,295.77 176.29,-73.54 11.97,15.16 16.9,1.43 -4.7,13.7 59.41,9.37 -6.58,23.89 82.88,9.99 54,17.01 -7.28,29.58 -103.54,-13.62 H 553.35 l 73.53,-31.69 -112.24,20.72 z" />
    <path
       style="fill:#ffffff"
       inkscape:connector-curvature="0"
       id="path50"
       d="M 979.34,175 964,235.76 949,207.43 928.4,282.29 907.79,246.46 895.21,275.06 881,182.6 l -17.13,121 -21.67,-71.13 -18.2,75 -19.55,-32.28 -17,49.43 c -17,-3 -34,1.17 -54.27,1.17 -20.54,0 -41.55,-6.94 -54.07,-5.88 -12.52,1.06 -29.75,7 -57.79,4.13 -28.04,-2.87 -64,1.75 -64,1.75 l 66.9,-27.52 C 573.31,305 524,307.51 524,307.51 c -25,0 -53.57,9.17 -53.57,9.17 -53.57,2.83 -72.7,10.82 -72.7,10.82 l 7.47,4.09 10.5,2.64 -23.58,5.9 -23.92,3.1 c -10.09,1.7 -26.27,9.38 -37.19,15.11 -1.23,-2.33 -2.39,-2.66 -2.39,-2.66 a 7.63,7.63 0 0 0 -1.44,3 15.34,15.34 0 0 0 -2.58,-5.72 12.41,12.41 0 0 0 -3.59,6.2 8.74,8.74 0 0 0 -1.44,-4.07 14.1,14.1 0 0 0 -4.26,4.65 10.74,10.74 0 0 0 -2.86,-6.45 c -2.83,2 -2.84,4.36 -2.82,4.79 a 9.68,9.68 0 0 0 -1.81,-5.48 c -4,2.57 -5.65,10.1 -5.65,10.1 a 8.17,8.17 0 0 0 -1.2,-4.79 c -4,0.86 -5.07,3.22 -5.07,3.22 -2.15,-7.37 -6.64,-9.18 -6.64,-9.18 -1.92,6.78 0.58,11.2 0.58,11.2 a 14.72,14.72 0 0 0 -6.88,1.55 8.93,8.93 0 0 0 1.47,-6 6.75,6.75 0 0 0 -4.15,2.84 9.71,9.71 0 0 0 -0.37,-6.4 9.51,9.51 0 0 0 -4.32,3.49 c 1,-4.21 -0.61,-9.65 -0.61,-9.65 -3.4,2.29 -4.49,7.8 -4.49,7.8 a 3,3 0 0 0 -1.2,-1.64 4.55,4.55 0 0 0 -1.41,3.83 c -11.67,-9.68 -18.57,-12.39 -21.66,-13.15 a 13,13 0 0 0 2.28,-5.89 7.88,7.88 0 0 0 -5.4,1.73 12.52,12.52 0 0 0 0,-9 c -2.74,0.55 -5.4,5.4 -5.4,5.4 a 15.27,15.27 0 0 0 -2.92,-10.16 c -7.06,5.06 -10,10.84 -11.11,14.15 L 165.25,235.76 138,288.81 122.57,214.67 112.93,281.43 79.65,175 h -5.3 L 65.67,202.73 55.2,175 0,175.25 V 420 H 1024 V 175 Z M 776.06,357.87 c -25.17,-6.12 -70.81,2 -70.81,2 -27.82,-2.45 -49,4.57 -49,4.57 a 46.88,46.88 0 0 0 -25,-9.56 c 60.4,-23.07 130.2,-20.71 152.45,-19.21 z" />
    <path
       style="fill:#ffffff"
       inkscape:connector-curvature="0"
       id="path52"
       d="m 340.89,310.97 -15.22,14.25 16.84,-11.84 z m 27.13,0.15 -8,8 1.63,0.69 8.67,-5.76 z m 61.56,-19.1 -20.04,19.1 20.04,-10 -1.81,-5.35 4.96,-2.79 z m -96.4,66.98 1.69,-9.57 1.98,9.57 1.9,-15.47 2.57,11.95 2.2,-12.25 2.71,10.57 m 7.78,-5 0.8,-5.13 1.1,5.13 z m 7.26,-3.17 1.02,-5.5 2.42,6.2 1.18,-5.78 2.35,5.08 m 16.03,-4.14 0.35,-2.69 a 0.39,0.39 0 0 1 0.76,0 l 0.53,2.71 3.09,-0.51 0.54,-3.72 0.82,4.21 4.05,-1 0.66,-5.92 0.6,5.56 0.82,-0.44 0.21,-2.74 a 0.2,0.2 0 0 1 0.39,0 l 0.5,3 1.48,-0.77 0.21,-2.57 0.77,2.57 m 376.75,19.87 c 0,0 -0.19,-5.52 -5,-12.79 0,0 -2,2.91 -2,8.53 a 15.46,15.46 0 0 0 -5.52,-4.56 c 0,0 -1.55,1.84 1.65,9.69 z m -21.6,0.48 a 27,27 0 0 0 -0.48,-6.44 6.91,6.91 0 0 0 -4.27,3.79 12.05,12.05 0 0 0 0,-7.61 c 0,0 -5.13,3.39 -6.1,8.52 a 12.65,12.65 0 0 0 -3,-4.7 14,14 0 0 0 -1.84,9.74 c 1.07,5.42 15.69,-3.3 15.69,-3.3 z m -30.02,5.07 a 19.76,19.76 0 0 0 0.29,-6.33 8.12,8.12 0 0 0 -2.92,1.86 19.61,19.61 0 0 0 -0.85,-6.88 8.41,8.41 0 0 0 -5.22,3.68 c 0,0 0.57,-1 -1.09,-4.65 a 9,9 0 0 0 -3.44,7.64 z m -17.84,-4.47 c 0,0 0.81,-4.69 -1.22,-8.45 a 6.7,6.7 0 0 0 -2.83,3.44 c 0,0 0.16,-1.42 -1.21,-4.37 a 9.56,9.56 0 0 0 -2.8,6.18 c 0,0 0.21,-1.25 -3.33,-3.33 a 5.93,5.93 0 0 0 -0.19,3.5 5.24,5.24 0 0 0 -3.48,-1.13 13.17,13.17 0 0 0 1.58,6.07 z" />
    <path
       style="fill:none;stroke:#ffffff;stroke-miterlimit:10"
       inkscape:connector-curvature="0"
       id="path54"
       stroke-miterlimit="10"
       d="m 722.67,367.45 c 0,0 6.82,-6.16 10.64,-18.18" />
    <circle
       style="fill:#ffffff"
       id="circle56"
       r="1.27"
       cy="349.27002"
       cx="733.31" />
    <circle
       style="fill:#ffffff"
       id="circle58"
       r="1.27"
       cy="347.78"
       cx="683.26001" />
    <path
       style="fill:none;stroke:#ffffff;stroke-miterlimit:10"
       inkscape:connector-curvature="0"
       id="path60"
       d="m 731.35,354.45 4.15,-1.36 m -6.66,6.26 -1.9,-3.91 m -41.53,5.05 a 45.15,45.15 0 0 0 -2.15,-12.71 m 1.5,4.65 2.35,-2.71 m -2.07,5.96 -3.43,-2.44"
       stroke-miterlimit="10" />
    <path
       style="fill:#ffffff"
       inkscape:connector-curvature="0"
       id="path62"
       d="m 788.25,324.7 -2.56,-8.31 -2.47,10.53 -2.55,-8.47 -1.89,8.8 -8.08,0.35 -3.7,-14.82 -2.81,15.22 -2,-10 -1.6,10 -5.29,-0.95 -2.55,-11.7 -1.6,6.65 -0.86,-8.88 a 0.4,0.4 0 0 0 -0.79,-0.05 l -2.16,9.74 -1,-8.35 -3.44,12.6 -6.37,-1.83 -1.91,-16.12 -2.19,16 v 8.06 l 49.22,-1.45 7.47,-3.68 z m -92.59,-2.81 -1.51,-10.63 -2.64,11.36 -8.41,-1.25 -2.17,-9.56 a 0.4,0.4 0 0 0 -0.78,0 l -2.15,10.29 -5.6,-1.1 -0.81,-15.53 -1.9,17.14 -1.09,-10.79 a 0.32,0.32 0 0 0 -0.64,0 l -1.28,11.67 -5,-0.59 -2,-10 -0.87,11.53 h -7.27 l -1.25,-8.84 -1.51,9.71 -1.49,-5.6 a 0.49,0.49 0 0 0 -0.95,0 l -1.34,5.82 -3.25,-13 -2.26,13 h -5.76 l -0.81,-11.08 -1.19,11.56 -2,-1.19 -0.39,-7.14 a 0.26,0.26 0 0 0 -0.51,0 l -1.74,8.33 -1.57,-14.2 -2.94,13.26 -4.58,-1.29 -1.07,-10.09 -1.87,7.32 -1.63,-10.27 -1.75,9.52 -1.57,-6.83 -2.88,11 -4.32,-0.44 -1.2,-6.39 a 0.63,0.63 0 0 0 -1.23,-0.06 l -2,6.77 -13,-0.44 -1.25,-6.7 -2.26,7.14 -0.97,-5.48 -1.44,5.2 h -3.96 l -0.94,-4.57 -0.75,5.13 h -2.69 l -0.89,-4.43 -1.13,5 82.34,6.26 45.31,-1.41 z" />
    <path
       style="fill:none;stroke:#ffffff;stroke-linecap:round;stroke-miterlimit:10"
       inkscape:connector-curvature="0"
       id="path64"
       d="M 593.35,317.07 V 325 m 2.12,-25.5 v 7.93 m -2.58,-6.38 v 7.93 m 5.09,-9.48 v 7.93 m 5.43,-7.45 v 3.69 m 2.23,-5.09 v 3.69 m 2.86,-3.07 v 3.69 m -23.29,-1.53 v 7.93 m -2.13,-6.82 v 7.93 m -7.64,-9.77 v 7.93 m -2.16,-6.09 v 7.93 m -2.71,-8.31 v 7.93 m -9.4,-8.2 v 7.93 M 558,303.47 v 7.93 m -2.92,-7.07 v 7.93 m -3.33,-7.93 v 7.93 m -3.19,-9.79 v 7.93 m -2.06,-6.07 v 7.93 m -2.54,-8.79 v 7.93 m -10.05,-7.33 V 312 m -1.6,-6.21 v 7.93 m -1.98,-9.12 v 7.93 m -2.52,-6.48 v 7.93 m -2.46,-6.93 v 7.93 m -3.42,-9.39 v 7.93 m -2.64,-8.92 v 7.93 m -4.82,-6.1 v 7.93 m -2.05,-8.57 v 7.93 m -2.62,-6.29 v 7.93 m -2.95,-8.93 v 7.93 m -4.9,-6.06 v 7.93 m -2.86,-7.46 v 7.93 m -2.04,-8.67 v 7.93 m -2.34,-6.41 v 7.93 m -4.33,-8.5 v 7.93 m -63.76,1.33 v 7.93 m -2.49,-6.41 v 7.92 m -5.32,-6.94 v 7.93 m -3.08,-8.34 v 7.92 m -2.31,-6.05 v 7.93 m -2.9,-8.34 v 7.93 m -2.42,-6.62 v 7.93"
       stroke-miterlimit="10" />
    <path
       style="fill:#ffffff"
       inkscape:connector-curvature="0"
       id="path66"
       d="m 538.48,302.89 -1.45,6.4 3.25,0.26 z m 26.05,-1.84 -1.52,6 h 3.39 z m 24.11,-3.24 -1.31,6.79 3.17,-0.27 z m -104.81,16.17 -0.69,-4.69 -0.76,6.07 z m -5.46,1 -1.66,-4.96 -1.31,6.68 -1.94,0.21 -1.03,-4.38 -1.15,5.24 h -2.38 l -0.83,-6.75 -0.69,7.31 h -2.07 l -1.38,-3.97 -0.62,3.97 -3.05,0.42 -1.14,-3.77 -0.55,4.04 -10.67,1.04 -0.97,-4.7 -0.97,5.04 h -3.04 l -1.17,-5.04 -1.18,5.7 -2.28,-0.52 -0.9,-4.31 -0.89,4.83 h -3.77 l -1.48,-4.15 -1.25,4.74 -1.59,-3.11 -0.48,3.11 0.62,2.07 h 30.57 l 20.7,-4.01 z" />
    <path
       style="fill:none;stroke:#e8f0fe;stroke-linecap:round;stroke-linejoin:round"
       inkscape:connector-curvature="0"
       id="path68"
       d="M 76.32,342.36 V 200.77 m 0,45.69 -13.5,-13.49 m 13.5,43.18 19.66,-19.66 M 76.32,310.97 53.59,288.24 m 69.51,-41.78 v 82.84 m 0,-45.65 8.8,-8.79 m -8.8,36.11 -8.76,-8.76 m 50.94,-54.79 v 93.15 m 9.93,-74.35 -9.93,9.93 m 0,41.62 -20.63,-20.63 m 660.87,-2.63 v 62.37 m 9.37,-47.11 -8.68,8.68 m -13.8,13.27 13.11,13.12 m 36.95,-86.27 v 79.71 m 8.3,-60.64 -7.77,7.76 m -11.78,24.37 11.25,11.24 m 39.08,-105.53 v 105.53 m 5.89,-70.41 -5.89,5.89 m -10.44,34.27 10.44,10.44 m 26.62,-37.25 v 64.93 m 10.19,-49.74 -10.19,10.19 m -10.19,14.8 10.19,10.19 m 42.31,-85.42 v 82.22 m 10,-56.8 -9.82,9.82 m -11.78,9.44 11.6,11.59" />
    <circle
       style="fill:#ffffff"
       id="circle70"
       r="1.5599999"
       cy="330.22998"
       cx="268.29001" />
    <path
       style="fill:none;stroke:#ffffff;stroke-miterlimit:10"
       inkscape:connector-curvature="0"
       id="path72"
       stroke-miterlimit="10"
       d="m 254.1,349.11 c 0,0 4.37,-12.82 14.19,-18.88 m -6.67,5.86 -0.99,-4.71 m -2.67,9.81 h 4.41 m 33.12,21.16 c 0,0 0.78,-10.71 6,-16.9" />
    <circle
       style="fill:#ffffff"
       id="circle74"
       r="1.5599999"
       cy="344.72998"
       cx="269.17001" />
    <circle
       style="fill:#ffffff"
       id="circle76"
       r="1.5599999"
       cy="345.53998"
       cx="301.48001" />
    <path
       style="fill:none;stroke:#ffffff;stroke-miterlimit:10"
       inkscape:connector-curvature="0"
       id="path78"
       stroke-miterlimit="10"
       d="m 269.53,345.94 c 0,0 2.67,8.66 1.85,13.8 m 26.95,-8.99 -2.3,-4.81 m 0.72,9.44 3.89,-0.93 m -33.09,-4.03 3.25,0.65 m -0.26,-2.5 1.93,-1.94" />
    <path
       style="fill:#8ab4f8"
       inkscape:connector-curvature="0"
       id="path80"
       d="m 473.29,200.48 -1.38,0.35 a 0.93,0.93 0 0 0 -0.6,1.32 l 4.25,8.47 8.11,-2.06 -9.13,-7.79 a 1.42,1.42 0 0 0 -1.25,-0.29 z" />
    <path
       style="fill:#ffffff"
       inkscape:connector-curvature="0"
       id="path82"
       d="m 475.56,210.62 -4.25,-8.47 a 0.93,0.93 0 0 1 0.6,-1.32 l 0.25,-0.06 4.77,9.5 z" />
    <path
       style="fill:#ffffff"
       inkscape:connector-curvature="0"
       id="path84"
       d="m 463.336,213.207 28.472,-7.083 a 2.34,2.34 0 0 1 2.836,1.706 2.34,2.34 0 0 1 -1.704,2.845 l -28.472,7.083 z" />
    <path
       style="fill:#ffffff"
       inkscape:connector-curvature="0"
       id="path86"
       d="m 463.79,209.42 a 1.35,1.35 0 0 0 -1,1.64 l 1.09,4.42 4.81,-1.2 -3.53,-4.4 a 1.35,1.35 0 0 0 -1.37,-0.46 z" />
    <path
       style="fill:#8ab4f8"
       inkscape:connector-curvature="0"
       id="path88"
       d="M 464.49,217.89 493,210.8 a 2.33,2.33 0 0 0 1.77,-2.29 l -30.68,7.63 z" />
    <path
       style="fill:#8ab4f8"
       inkscape:connector-curvature="0"
       id="path90"
       d="m 478.83,225 -1.38,0.34 a 0.93,0.93 0 0 1 -1.16,-0.88 L 476,215 l 8.12,-2 -4.37,11.17 a 1.39,1.39 0 0 1 -0.92,0.83 z" />
    <path
       style="fill:#ffffff"
       inkscape:connector-curvature="0"
       id="path92"
       d="m 476,215 0.25,9.47 a 0.93,0.93 0 0 0 1.16,0.88 l 0.25,-0.06 -0.28,-10.63 z" />
    <path
       style="fill:none;stroke:#ffffff;stroke-width:1.24000001;stroke-linecap:round;stroke-miterlimit:10"
       inkscape:connector-curvature="0"
       id="path94"
       d="m 459.28,214.67 -170.81,40.2 171.72,-36.98"
       stroke-miterlimit="10" />
    <path
       style="fill:none;stroke:#aecbfa;stroke-miterlimit:10"
       inkscape:connector-curvature="0"
       id="path96"
       d="m 706.75,344.54 h 48.41"
       stroke-miterlimit="10" />
    <path
       style="fill:none;stroke:#f4afb6;stroke-width:1.98000002;stroke-linecap:round;stroke-miterlimit:10"
       inkscape:connector-curvature="0"
       id="path98"
       stroke-miterlimit="10"
       d="m 731.41,317 a 7.05,7.05 0 0 1 -0.21,-4" />
    <path
       style="fill:#56a55c"
       inkscape:connector-curvature="0"
       id="path100"
       d="m 732.21,315.79 a 5.73,5.73 0 0 0 2,3.61 4.71,4.71 0 0 0 3.78,1 l 0.48,3.19 a 8,8 0 0 1 -6.27,-1.65 8.89,8.89 0 0 1 -3.16,-5.65 3.93,3.93 0 0 1 -0.06,-0.48" />
    <path
       style="fill:#f4afb6"
       inkscape:connector-curvature="0"
       id="path102"
       d="m 737.55,318.8 h 3.26 v 2.58 h -3.26 z" />
    <circle
       style="fill:#ee675c"
       id="circle104"
       r="3.47"
       cy="316.48999"
       cx="739.78998" />
    <path
       style="fill:#56a55c"
       inkscape:connector-curvature="0"
       id="path106"
       d="m 739,320.5 h 1.56 a 3.37,3.37 0 0 1 2.86,2.7 l -0.18,8.2 h -10.45 l 1.1,-11" />
    <path
       style="fill:#343659"
       inkscape:connector-curvature="0"
       id="path108"
       d="m 734.08,331.4 -3,13.64 h 4.1 l 3,-9.41 0.66,9.41 H 743 c 0,0 0.12,-5.2 0.27,-13.64 z" />
    <path
       style="fill:#f4afb6"
       inkscape:connector-curvature="0"
       id="path110"
       d="m 709,283.73 h 4.8 v 7.15 H 709 Z m 14.23,14.37 a 41.73,41.73 0 0 1 9.51,12 c 0,0 0.87,2.09 -0.33,3.3 0,0 -1.42,1.34 -2.42,0 -1,-1.34 0.17,-3 0.17,-3 0,0 -2.62,-3.76 -9,-8.9 z" />
    <path
       style="fill:#f9ab00"
       inkscape:connector-curvature="0"
       id="path112"
       d="m 718.65,319.47 a 83.76,83.76 0 0 0 9.83,25.53 h -8.11 a 52.39,52.39 0 0 1 -8.87,-15.88 c 0,0 1.68,13.48 2.5,15.88 h -7.33 a 57.83,57.83 0 0 1 -3.1,-36.29 h 14.32 v 1.09 a 41,41 0 0 0 0.76,9.67 z" />
    <path
       style="fill:#4285f4"
       inkscape:connector-curvature="0"
       id="path114"
       d="m 717.85,311.52 h -19.33 l 3.93,-18.4 -5.85,-5.84 4.39,-4.39 6.22,5.25 c 0,0 10.18,2.06 16,10 a 23.29,23.29 0 0 1 -4.76,6.61 z" />
    <path
       style="fill:#4b4d75"
       inkscape:connector-curvature="0"
       id="path116"
       d="m 720.1,288.25 h -5 l -7.83,-0.06 a 1.89,1.89 0 0 0 -1.9,1.87 L 705.25,306 a 1.87,1.87 0 0 0 1.87,1.89 l 11.21,0.08 a 1.88,1.88 0 0 0 1.89,-1.87 l 0.06,-8.62 a 1.87,1.87 0 0 0 1.63,-1.84 l 0.06,-5.51 a 1.89,1.89 0 0 0 -1.87,-1.88 z" />
    <path
       style="fill:#f4afb6"
       inkscape:connector-curvature="0"
       id="path118"
       d="M 701,282.89 682.28,265.6 a 0.63,0.63 0 0 0 -0.83,0 0.62,0.62 0 0 0 -0.06,0.84 l 1.93,2.32 v 0.62 a 2.89,2.89 0 0 0 0.79,2 L 697.92,286 Z" />
    <path
       style="fill:#f29900"
       inkscape:connector-curvature="0"
       id="path120"
       d="m 712.72,345 c -1.48,-6.44 -3.69,-18.41 -2,-27.12 l 1.22,0.24 c -0.71,3.64 -1.37,12.09 2,26.88 z" />
    <path
       style="fill:#343757"
       inkscape:connector-curvature="0"
       id="path122"
       d="m 710.79,290.12 a 1.87,1.87 0 0 0 -1.86,-1.89 h -1.67 a 1.89,1.89 0 0 0 -1.9,1.87 l -0.11,15.9 a 1.87,1.87 0 0 0 1.87,1.89 h 3.66 v -10.52 a 3.59,3.59 0 0 0 2.59,1.12 h 1.22 v 2.59 H 717 v -2.59 h 3.31 v -1 h -6.9 a 2.59,2.59 0 0 1 -2.58,-2.58 z" />
    <path
       style="fill:#ea4335"
       inkscape:connector-curvature="0"
       id="path124"
       d="m 709.88,312.59 a 3.39,3.39 0 0 1 0,-6.77 h 10.6 a 3.39,3.39 0 1 1 0,6.77 z" />
    <circle
       style="fill:#c5221f"
       id="circle126"
       r="3.3800001"
       cy="309.21002"
       cx="709.88" />
    <circle
       style="fill:#da5040"
       id="circle128"
       r="1.74"
       cy="309.21002"
       cx="709.88" />
    <path
       style="fill:#1967d2"
       inkscape:connector-curvature="0"
       id="path130"
       d="m 741.77,329.51 h -4.06 a 1.07,1.07 0 0 1 -1.07,-1.08 v -5.23 a 3.1,3.1 0 0 1 3.1,-3.11 h 1.85 l 1.26,8.34 a 1.08,1.08 0 0 1 -1.08,1.08 z" />
    <path
       style="fill:#4285f4"
       inkscape:connector-curvature="0"
       id="path132"
       d="m 741.49,320.09 a 3.11,3.11 0 0 1 3.11,3.11 v 5.24 a 1.07,1.07 0 0 1 -1.07,1.07 h -4.07 a 1.07,1.07 0 0 1 -1.07,-1.07 v -5.24 a 3.11,3.11 0 0 1 3.11,-3.11 z" />
    <path
       style="fill:none;stroke:#265bb6;stroke-miterlimit:10"
       inkscape:connector-curvature="0"
       id="path134"
       stroke-miterlimit="10"
       d="m 739.54,324.94 v -1.74 a 2,2 0 0 1 2,-1.95 v 0 a 2,2 0 0 1 2,1.95 v 1.74" />
    <circle
       style="fill:#ee675c"
       id="circle136"
       r="1.79"
       cy="319.47"
       cx="742.19" />
    <circle
       style="fill:#ffffff"
       id="circle138"
       r="1.27"
       cy="342.98999"
       cx="763.83002" />
    <path
       style="fill:none;stroke:#ffffff;stroke-miterlimit:10"
       inkscape:connector-curvature="0"
       id="path140"
       stroke-miterlimit="10"
       d="m 755.22,359 c 0,0 0.06,-8.52 8.61,-16 m -5.58,6.27 3.9,-1.15 m -5.2,3.74 -1.84,-2.97" />
    <path
       style="fill:#ee675c"
       inkscape:connector-curvature="0"
       id="path142"
       d="m 711.63,275.06 a 5.41,5.41 0 0 0 -5.13,5.6 6.71,6.71 0 0 0 10.5,5.89 2.66,2.66 0 0 1 2.25,0.27 c 1,0.72 3.24,4.52 7.9,4.52 4.66,0 5.06,-4 5.28,-5.78 a 14.78,14.78 0 0 0 6.78,2.14 c 3.4,0 4.58,-2.19 4.58,-4.23 0,-2.04 -0.9,-3 -2.61,-3.85 0,0 1.75,1.87 1,3.27 -0.75,1.4 -4,2.29 -6.82,-1 a 7.18,7.18 0 0 0 -6.11,-2.75 c 0,0 -3.08,0.77 -3.25,3.71 a 11.9,11.9 0 0 1 -6,-3.49 c -2.25,-2.66 -4.59,-4.18 -8.37,-4.3 z" />
  </g>
</svg>
